<?xml version="1.0" encoding="utf-8" standalone="no"?>
<!DOCTYPE svg PUBLIC "-//W3C//DTD SVG 1.1//EN"
  "http://www.w3.org/Graphics/SVG/1.1/DTD/svg11.dtd">
<svg xmlns:xlink="http://www.w3.org/1999/xlink" width="632.52pt" height="1106.82pt" viewBox="0 0 632.52 1106.82" xmlns="http://www.w3.org/2000/svg" version="1.1">
 <metadata>
  <rdf:RDF xmlns:dc="http://purl.org/dc/elements/1.1/" xmlns:cc="http://creativecommons.org/ns#" xmlns:rdf="http://www.w3.org/1999/02/22-rdf-syntax-ns#">
   <cc:Work>
    <dc:type rdf:resource="http://purl.org/dc/dcmitype/StillImage"/>
    <dc:date>2022-11-27T23:38:43.296101</dc:date>
    <dc:format>image/svg+xml</dc:format>
    <dc:creator>
     <cc:Agent>
      <dc:title>Matplotlib v3.5.2, https://matplotlib.org/</dc:title>
     </cc:Agent>
    </dc:creator>
   </cc:Work>
  </rdf:RDF>
 </metadata>
 <defs>
  <style type="text/css">*{stroke-linejoin: round; stroke-linecap: butt}</style>
 </defs>
 <g id="figure_1">
  <g id="patch_1">
   <path d="M 0 1106.82 
L 632.52 1106.82 
L 632.52 0 
L 0 0 
z
" style="fill: #ffffff"/>
  </g>
  <g id="axes_1">
   <g id="patch_2">
    <path d="M 373.635 48.51 
L 373.938437 48.507593 
L 374.241797 48.500371 
L 374.545004 48.488338 
L 374.847982 48.471495 
L 375.150655 48.449848 
L 375.452947 48.423401 
L 375.754781 48.392161 
L 376.056081 48.356136 
L 376.356771 48.315335 
L 376.656777 48.269769 
L 376.956021 48.219448 
L 377.25443 48.164386 
L 377.551928 48.104597 
L 377.848439 48.040095 
L 378.14389 47.970896 
L 378.438205 47.897019 
L 378.731312 47.818481 
L 379.023135 47.735303 
L 379.313602 47.647505 
L 379.60264 47.55511 
L 379.890175 47.458141 
L 380.176135 47.356621 
L 380.460449 47.250578 
L 380.743044 47.140037 
L 381.023851 47.025026 
L 381.302796 46.905574 
L 381.579812 46.781712 
L 381.854828 46.65347 
L 382.127774 46.520881 
L 382.398582 46.383978 
L 382.667184 46.242796 
L 382.933513 46.097369 
L 383.1975 45.947736 
L 383.45908 45.793933 
L 383.718187 45.635999 
L 383.974756 45.473974 
L 384.228721 45.307898 
L 384.48002 45.137815 
L 384.728588 44.963765 
L 384.974364 44.785794 
L 385.217285 44.603945 
L 385.457291 44.418265 
L 385.69432 44.228801 
L 385.928313 44.0356 
L 386.159212 43.838711 
L 386.386957 43.638183 
L 386.611492 43.434066 
L 386.832761 43.226413 
L 387.050707 43.015276 
L 387.265276 42.800707 
L 387.476413 42.582761 
L 387.684066 42.361492 
L 387.888183 42.136957 
L 388.088711 41.909212 
L 388.2856 41.678313 
L 388.478801 41.44432 
L 388.668265 41.207291 
L 388.853945 40.967285 
L 389.035794 40.724364 
L 389.213765 40.478588 
L 389.387815 40.23002 
L 389.557898 39.978721 
L 389.723974 39.724756 
L 389.885999 39.468187 
L 390.043933 39.20908 
L 390.197736 38.9475 
L 390.347369 38.683513 
L 390.492796 38.417184 
L 390.633978 38.148582 
L 390.770881 37.877774 
L 390.90347 37.604828 
L 391.031712 37.329812 
L 391.155574 37.052796 
L 391.275026 36.773851 
L 391.390037 36.493044 
L 391.500578 36.210449 
L 391.606621 35.926135 
L 391.708141 35.640175 
L 391.80511 35.35264 
L 391.897505 35.063602 
L 391.985303 34.773135 
L 392.068481 34.481312 
L 392.147019 34.188205 
L 392.220896 33.89389 
L 392.290095 33.598439 
L 392.354597 33.301928 
L 392.414386 33.00443 
L 392.469448 32.706021 
L 392.519769 32.406777 
L 392.565335 32.106771 
L 392.606136 31.806081 
L 392.642161 31.504781 
L 392.673401 31.202947 
L 392.699848 30.900655 
L 392.721495 30.597982 
L 392.738338 30.295004 
L 392.750371 29.991797 
L 392.757593 29.688437 
L 392.76 29.385 
L 392.76 29.385 
L 392.757593 29.081563 
L 392.750371 28.778203 
L 392.738338 28.474996 
L 392.721495 28.172018 
L 392.699848 27.869345 
L 392.673401 27.567053 
L 392.642161 27.265219 
L 392.606136 26.963919 
L 392.565335 26.663229 
L 392.519769 26.363223 
L 392.469448 26.063979 
L 392.414386 25.76557 
L 392.354597 25.468072 
L 392.290095 25.171561 
L 392.220896 24.87611 
L 392.147019 24.581795 
L 392.068481 24.288688 
L 391.985303 23.996865 
L 391.897505 23.706398 
L 391.80511 23.41736 
L 391.708141 23.129825 
L 391.606621 22.843865 
L 391.500578 22.559551 
L 391.390037 22.276956 
L 391.275026 21.996149 
L 391.155574 21.717204 
L 391.031712 21.440188 
L 390.90347 21.165172 
L 390.770881 20.892226 
L 390.633978 20.621418 
L 390.492796 20.352816 
L 390.347369 20.086487 
L 390.197736 19.8225 
L 390.043933 19.56092 
L 389.885999 19.301813 
L 389.723974 19.045244 
L 389.557898 18.791279 
L 389.387815 18.53998 
L 389.213765 18.291412 
L 389.035794 18.045636 
L 388.853945 17.802715 
L 388.668265 17.562709 
L 388.478801 17.32568 
L 388.2856 17.091687 
L 388.088711 16.860788 
L 387.888183 16.633043 
L 387.684066 16.408508 
L 387.476413 16.187239 
L 387.265276 15.969293 
L 387.050707 15.754724 
L 386.832761 15.543587 
L 386.611492 15.335934 
L 386.386957 15.131817 
L 386.159212 14.931289 
L 385.928313 14.7344 
L 385.69432 14.541199 
L 385.457291 14.351735 
L 385.217285 14.166055 
L 384.974364 13.984206 
L 384.728588 13.806235 
L 384.48002 13.632185 
L 384.228721 13.462102 
L 383.974756 13.296026 
L 383.718187 13.134001 
L 383.45908 12.976067 
L 383.1975 12.822264 
L 382.933513 12.672631 
L 382.667184 12.527204 
L 382.398582 12.386022 
L 382.127774 12.249119 
L 381.854828 12.11653 
L 381.579812 11.988288 
L 381.302796 11.864426 
L 381.023851 11.744974 
L 380.743044 11.629963 
L 380.460449 11.519422 
L 380.176135 11.413379 
L 379.890175 11.311859 
L 379.60264 11.21489 
L 379.313602 11.122495 
L 379.023135 11.034697 
L 378.731312 10.951519 
L 378.438205 10.872981 
L 378.14389 10.799104 
L 377.848439 10.729905 
L 377.551928 10.665403 
L 377.25443 10.605614 
L 376.956021 10.550552 
L 376.656777 10.500231 
L 376.356771 10.454665 
L 376.056081 10.413864 
L 375.754781 10.377839 
L 375.452947 10.346599 
L 375.150655 10.320152 
L 374.847982 10.298505 
L 374.545004 10.281662 
L 374.241797 10.269629 
L 373.938437 10.262407 
L 373.635 10.26 
L 258.885 10.26 
L 258.581563 10.262407 
L 258.278203 10.269629 
L 257.974996 10.281662 
L 257.672018 10.298505 
L 257.369345 10.320152 
L 257.067053 10.346599 
L 256.765219 10.377839 
L 256.463919 10.413864 
L 256.163229 10.454665 
L 255.863223 10.500231 
L 255.563979 10.550552 
L 255.26557 10.605614 
L 254.968072 10.665403 
L 254.671561 10.729905 
L 254.37611 10.799104 
L 254.081795 10.872981 
L 253.788688 10.951519 
L 253.496865 11.034697 
L 253.206398 11.122495 
L 252.91736 11.21489 
L 252.629825 11.311859 
L 252.343865 11.413379 
L 252.059551 11.519422 
L 251.776956 11.629963 
L 251.496149 11.744974 
L 251.217204 11.864426 
L 250.940188 11.988288 
L 250.665172 12.11653 
L 250.392226 12.249119 
L 250.121418 12.386022 
L 249.852816 12.527204 
L 249.586487 12.672631 
L 249.3225 12.822264 
L 249.06092 12.976067 
L 248.801813 13.134001 
L 248.545244 13.296026 
L 248.291279 13.462102 
L 248.03998 13.632185 
L 247.791412 13.806235 
L 247.545636 13.984206 
L 247.302715 14.166055 
L 247.062709 14.351735 
L 246.82568 14.541199 
L 246.591687 14.7344 
L 246.360788 14.931289 
L 246.133043 15.131817 
L 245.908508 15.335934 
L 245.687239 15.543587 
L 245.469293 15.754724 
L 245.254724 15.969293 
L 245.043587 16.187239 
L 244.835934 16.408508 
L 244.631817 16.633043 
L 244.431289 16.860788 
L 244.2344 17.091687 
L 244.041199 17.32568 
L 243.851735 17.562709 
L 243.666055 17.802715 
L 243.484206 18.045636 
L 243.306235 18.291412 
L 243.132185 18.53998 
L 242.962102 18.791279 
L 242.796026 19.045244 
L 242.634001 19.301813 
L 242.476067 19.56092 
L 242.322264 19.8225 
L 242.172631 20.086487 
L 242.027204 20.352816 
L 241.886022 20.621418 
L 241.749119 20.892226 
L 241.61653 21.165172 
L 241.488288 21.440188 
L 241.364426 21.717204 
L 241.244974 21.996149 
L 241.129963 22.276956 
L 241.019422 22.559551 
L 240.913379 22.843865 
L 240.811859 23.129825 
L 240.71489 23.41736 
L 240.622495 23.706398 
L 240.534697 23.996865 
L 240.451519 24.288688 
L 240.372981 24.581795 
L 240.299104 24.87611 
L 240.229905 25.171561 
L 240.165403 25.468072 
L 240.105614 25.76557 
L 240.050552 26.063979 
L 240.000231 26.363223 
L 239.954665 26.663229 
L 239.913864 26.963919 
L 239.877839 27.265219 
L 239.846599 27.567053 
L 239.820152 27.869345 
L 239.798505 28.172018 
L 239.781662 28.474996 
L 239.769629 28.778203 
L 239.762407 29.081563 
L 239.76 29.385 
L 239.76 29.385 
L 239.762407 29.688437 
L 239.769629 29.991797 
L 239.781662 30.295004 
L 239.798505 30.597982 
L 239.820152 30.900655 
L 239.846599 31.202947 
L 239.877839 31.504781 
L 239.913864 31.806081 
L 239.954665 32.106771 
L 240.000231 32.406777 
L 240.050552 32.706021 
L 240.105614 33.00443 
L 240.165403 33.301928 
L 240.229905 33.598439 
L 240.299104 33.89389 
L 240.372981 34.188205 
L 240.451519 34.481312 
L 240.534697 34.773135 
L 240.622495 35.063602 
L 240.71489 35.35264 
L 240.811859 35.640175 
L 240.913379 35.926135 
L 241.019422 36.210449 
L 241.129963 36.493044 
L 241.244974 36.773851 
L 241.364426 37.052796 
L 241.488288 37.329812 
L 241.61653 37.604828 
L 241.749119 37.877774 
L 241.886022 38.148582 
L 242.027204 38.417184 
L 242.172631 38.683513 
L 242.322264 38.9475 
L 242.476067 39.20908 
L 242.634001 39.468187 
L 242.796026 39.724756 
L 242.962102 39.978721 
L 243.132185 40.23002 
L 243.306235 40.478588 
L 243.484206 40.724364 
L 243.666055 40.967285 
L 243.851735 41.207291 
L 244.041199 41.44432 
L 244.2344 41.678313 
L 244.431289 41.909212 
L 244.631817 42.136957 
L 244.835934 42.361492 
L 245.043587 42.582761 
L 245.254724 42.800707 
L 245.469293 43.015276 
L 245.687239 43.226413 
L 245.908508 43.434066 
L 246.133043 43.638183 
L 246.360788 43.838711 
L 246.591687 44.0356 
L 246.82568 44.228801 
L 247.062709 44.418265 
L 247.302715 44.603945 
L 247.545636 44.785794 
L 247.791412 44.963765 
L 248.03998 45.137815 
L 248.291279 45.307898 
L 248.545244 45.473974 
L 248.801813 45.635999 
L 249.06092 45.793933 
L 249.3225 45.947736 
L 249.586487 46.097369 
L 249.852816 46.242796 
L 250.121418 46.383978 
L 250.392226 46.520881 
L 250.665172 46.65347 
L 250.940188 46.781712 
L 251.217204 46.905574 
L 251.496149 47.025026 
L 251.776956 47.140037 
L 252.059551 47.250578 
L 252.343865 47.356621 
L 252.629825 47.458141 
L 252.91736 47.55511 
L 253.206398 47.647505 
L 253.496865 47.735303 
L 253.788688 47.818481 
L 254.081795 47.897019 
L 254.37611 47.970896 
L 254.671561 48.040095 
L 254.968072 48.104597 
L 255.26557 48.164386 
L 255.563979 48.219448 
L 255.863223 48.269769 
L 256.163229 48.315335 
L 256.463919 48.356136 
L 256.765219 48.392161 
L 257.067053 48.423401 
L 257.369345 48.449848 
L 257.672018 48.471495 
L 257.974996 48.488338 
L 258.278203 48.500371 
L 258.581563 48.507593 
L 258.885 48.51 
L 373.635 48.51 
z
" clip-path="url(#pc78173f237)" style="fill: none; stroke: #000000; stroke-width: 2; stroke-linecap: round"/>
   </g>
   <g id="patch_3">
    <path d="M 373.635 1096.56 
L 373.938437 1096.557593 
L 374.241797 1096.550371 
L 374.545004 1096.538338 
L 374.847982 1096.521495 
L 375.150655 1096.499848 
L 375.452947 1096.473401 
L 375.754781 1096.442161 
L 376.056081 1096.406136 
L 376.356771 1096.365335 
L 376.656777 1096.319769 
L 376.956021 1096.269448 
L 377.25443 1096.214386 
L 377.551928 1096.154597 
L 377.848439 1096.090095 
L 378.14389 1096.020896 
L 378.438205 1095.947019 
L 378.731312 1095.868481 
L 379.023135 1095.785303 
L 379.313602 1095.697505 
L 379.60264 1095.60511 
L 379.890175 1095.508141 
L 380.176135 1095.406621 
L 380.460449 1095.300578 
L 380.743044 1095.190037 
L 381.023851 1095.075026 
L 381.302796 1094.955574 
L 381.579812 1094.831712 
L 381.854828 1094.70347 
L 382.127774 1094.570881 
L 382.398582 1094.433978 
L 382.667184 1094.292796 
L 382.933513 1094.147369 
L 383.1975 1093.997736 
L 383.45908 1093.843933 
L 383.718187 1093.685999 
L 383.974756 1093.523974 
L 384.228721 1093.357898 
L 384.48002 1093.187815 
L 384.728588 1093.013765 
L 384.974364 1092.835794 
L 385.217285 1092.653945 
L 385.457291 1092.468265 
L 385.69432 1092.278801 
L 385.928313 1092.0856 
L 386.159212 1091.888711 
L 386.386957 1091.688183 
L 386.611492 1091.484066 
L 386.832761 1091.276413 
L 387.050707 1091.065276 
L 387.265276 1090.850707 
L 387.476413 1090.632761 
L 387.684066 1090.411492 
L 387.888183 1090.186957 
L 388.088711 1089.959212 
L 388.2856 1089.728313 
L 388.478801 1089.49432 
L 388.668265 1089.257291 
L 388.853945 1089.017285 
L 389.035794 1088.774364 
L 389.213765 1088.528588 
L 389.387815 1088.28002 
L 389.557898 1088.028721 
L 389.723974 1087.774756 
L 389.885999 1087.518187 
L 390.043933 1087.25908 
L 390.197736 1086.9975 
L 390.347369 1086.733513 
L 390.492796 1086.467184 
L 390.633978 1086.198582 
L 390.770881 1085.927774 
L 390.90347 1085.654828 
L 391.031712 1085.379812 
L 391.155574 1085.102796 
L 391.275026 1084.823851 
L 391.390037 1084.543044 
L 391.500578 1084.260449 
L 391.606621 1083.976135 
L 391.708141 1083.690175 
L 391.80511 1083.40264 
L 391.897505 1083.113602 
L 391.985303 1082.823135 
L 392.068481 1082.531312 
L 392.147019 1082.238205 
L 392.220896 1081.94389 
L 392.290095 1081.648439 
L 392.354597 1081.351928 
L 392.414386 1081.05443 
L 392.469448 1080.756021 
L 392.519769 1080.456777 
L 392.565335 1080.156771 
L 392.606136 1079.856081 
L 392.642161 1079.554781 
L 392.673401 1079.252947 
L 392.699848 1078.950655 
L 392.721495 1078.647982 
L 392.738338 1078.345004 
L 392.750371 1078.041797 
L 392.757593 1077.738437 
L 392.76 1077.435 
L 392.76 1077.435 
L 392.757593 1077.131563 
L 392.750371 1076.828203 
L 392.738338 1076.524996 
L 392.721495 1076.222018 
L 392.699848 1075.919345 
L 392.673401 1075.617053 
L 392.642161 1075.315219 
L 392.606136 1075.013919 
L 392.565335 1074.713229 
L 392.519769 1074.413223 
L 392.469448 1074.113979 
L 392.414386 1073.81557 
L 392.354597 1073.518072 
L 392.290095 1073.221561 
L 392.220896 1072.92611 
L 392.147019 1072.631795 
L 392.068481 1072.338688 
L 391.985303 1072.046865 
L 391.897505 1071.756398 
L 391.80511 1071.46736 
L 391.708141 1071.179825 
L 391.606621 1070.893865 
L 391.500578 1070.609551 
L 391.390037 1070.326956 
L 391.275026 1070.046149 
L 391.155574 1069.767204 
L 391.031712 1069.490188 
L 390.90347 1069.215172 
L 390.770881 1068.942226 
L 390.633978 1068.671418 
L 390.492796 1068.402816 
L 390.347369 1068.136487 
L 390.197736 1067.8725 
L 390.043933 1067.61092 
L 389.885999 1067.351813 
L 389.723974 1067.095244 
L 389.557898 1066.841279 
L 389.387815 1066.58998 
L 389.213765 1066.341412 
L 389.035794 1066.095636 
L 388.853945 1065.852715 
L 388.668265 1065.612709 
L 388.478801 1065.37568 
L 388.2856 1065.141687 
L 388.088711 1064.910788 
L 387.888183 1064.683043 
L 387.684066 1064.458508 
L 387.476413 1064.237239 
L 387.265276 1064.019293 
L 387.050707 1063.804724 
L 386.832761 1063.593587 
L 386.611492 1063.385934 
L 386.386957 1063.181817 
L 386.159212 1062.981289 
L 385.928313 1062.7844 
L 385.69432 1062.591199 
L 385.457291 1062.401735 
L 385.217285 1062.216055 
L 384.974364 1062.034206 
L 384.728588 1061.856235 
L 384.48002 1061.682185 
L 384.228721 1061.512102 
L 383.974756 1061.346026 
L 383.718187 1061.184001 
L 383.45908 1061.026067 
L 383.1975 1060.872264 
L 382.933513 1060.722631 
L 382.667184 1060.577204 
L 382.398582 1060.436022 
L 382.127774 1060.299119 
L 381.854828 1060.16653 
L 381.579812 1060.038288 
L 381.302796 1059.914426 
L 381.023851 1059.794974 
L 380.743044 1059.679963 
L 380.460449 1059.569422 
L 380.176135 1059.463379 
L 379.890175 1059.361859 
L 379.60264 1059.26489 
L 379.313602 1059.172495 
L 379.023135 1059.084697 
L 378.731312 1059.001519 
L 378.438205 1058.922981 
L 378.14389 1058.849104 
L 377.848439 1058.779905 
L 377.551928 1058.715403 
L 377.25443 1058.655614 
L 376.956021 1058.600552 
L 376.656777 1058.550231 
L 376.356771 1058.504665 
L 376.056081 1058.463864 
L 375.754781 1058.427839 
L 375.452947 1058.396599 
L 375.150655 1058.370152 
L 374.847982 1058.348505 
L 374.545004 1058.331662 
L 374.241797 1058.319629 
L 373.938437 1058.312407 
L 373.635 1058.31 
L 258.885 1058.31 
L 258.581563 1058.312407 
L 258.278203 1058.319629 
L 257.974996 1058.331662 
L 257.672018 1058.348505 
L 257.369345 1058.370152 
L 257.067053 1058.396599 
L 256.765219 1058.427839 
L 256.463919 1058.463864 
L 256.163229 1058.504665 
L 255.863223 1058.550231 
L 255.563979 1058.600552 
L 255.26557 1058.655614 
L 254.968072 1058.715403 
L 254.671561 1058.779905 
L 254.37611 1058.849104 
L 254.081795 1058.922981 
L 253.788688 1059.001519 
L 253.496865 1059.084697 
L 253.206398 1059.172495 
L 252.91736 1059.26489 
L 252.629825 1059.361859 
L 252.343865 1059.463379 
L 252.059551 1059.569422 
L 251.776956 1059.679963 
L 251.496149 1059.794974 
L 251.217204 1059.914426 
L 250.940188 1060.038288 
L 250.665172 1060.16653 
L 250.392226 1060.299119 
L 250.121418 1060.436022 
L 249.852816 1060.577204 
L 249.586487 1060.722631 
L 249.3225 1060.872264 
L 249.06092 1061.026067 
L 248.801813 1061.184001 
L 248.545244 1061.346026 
L 248.291279 1061.512102 
L 248.03998 1061.682185 
L 247.791412 1061.856235 
L 247.545636 1062.034206 
L 247.302715 1062.216055 
L 247.062709 1062.401735 
L 246.82568 1062.591199 
L 246.591687 1062.7844 
L 246.360788 1062.981289 
L 246.133043 1063.181817 
L 245.908508 1063.385934 
L 245.687239 1063.593587 
L 245.469293 1063.804724 
L 245.254724 1064.019293 
L 245.043587 1064.237239 
L 244.835934 1064.458508 
L 244.631817 1064.683043 
L 244.431289 1064.910788 
L 244.2344 1065.141687 
L 244.041199 1065.37568 
L 243.851735 1065.612709 
L 243.666055 1065.852715 
L 243.484206 1066.095636 
L 243.306235 1066.341412 
L 243.132185 1066.58998 
L 242.962102 1066.841279 
L 242.796026 1067.095244 
L 242.634001 1067.351813 
L 242.476067 1067.61092 
L 242.322264 1067.8725 
L 242.172631 1068.136487 
L 242.027204 1068.402816 
L 241.886022 1068.671418 
L 241.749119 1068.942226 
L 241.61653 1069.215172 
L 241.488288 1069.490188 
L 241.364426 1069.767204 
L 241.244974 1070.046149 
L 241.129963 1070.326956 
L 241.019422 1070.609551 
L 240.913379 1070.893865 
L 240.811859 1071.179825 
L 240.71489 1071.46736 
L 240.622495 1071.756398 
L 240.534697 1072.046865 
L 240.451519 1072.338688 
L 240.372981 1072.631795 
L 240.299104 1072.92611 
L 240.229905 1073.221561 
L 240.165403 1073.518072 
L 240.105614 1073.81557 
L 240.050552 1074.113979 
L 240.000231 1074.413223 
L 239.954665 1074.713229 
L 239.913864 1075.013919 
L 239.877839 1075.315219 
L 239.846599 1075.617053 
L 239.820152 1075.919345 
L 239.798505 1076.222018 
L 239.781662 1076.524996 
L 239.769629 1076.828203 
L 239.762407 1077.131563 
L 239.76 1077.435 
L 239.76 1077.435 
L 239.762407 1077.738437 
L 239.769629 1078.041797 
L 239.781662 1078.345004 
L 239.798505 1078.647982 
L 239.820152 1078.950655 
L 239.846599 1079.252947 
L 239.877839 1079.554781 
L 239.913864 1079.856081 
L 239.954665 1080.156771 
L 240.000231 1080.456777 
L 240.050552 1080.756021 
L 240.105614 1081.05443 
L 240.165403 1081.351928 
L 240.229905 1081.648439 
L 240.299104 1081.94389 
L 240.372981 1082.238205 
L 240.451519 1082.531312 
L 240.534697 1082.823135 
L 240.622495 1083.113602 
L 240.71489 1083.40264 
L 240.811859 1083.690175 
L 240.913379 1083.976135 
L 241.019422 1084.260449 
L 241.129963 1084.543044 
L 241.244974 1084.823851 
L 241.364426 1085.102796 
L 241.488288 1085.379812 
L 241.61653 1085.654828 
L 241.749119 1085.927774 
L 241.886022 1086.198582 
L 242.027204 1086.467184 
L 242.172631 1086.733513 
L 242.322264 1086.9975 
L 242.476067 1087.25908 
L 242.634001 1087.518187 
L 242.796026 1087.774756 
L 242.962102 1088.028721 
L 243.132185 1088.28002 
L 243.306235 1088.528588 
L 243.484206 1088.774364 
L 243.666055 1089.017285 
L 243.851735 1089.257291 
L 244.041199 1089.49432 
L 244.2344 1089.728313 
L 244.431289 1089.959212 
L 244.631817 1090.186957 
L 244.835934 1090.411492 
L 245.043587 1090.632761 
L 245.254724 1090.850707 
L 245.469293 1091.065276 
L 245.687239 1091.276413 
L 245.908508 1091.484066 
L 246.133043 1091.688183 
L 246.360788 1091.888711 
L 246.591687 1092.0856 
L 246.82568 1092.278801 
L 247.062709 1092.468265 
L 247.302715 1092.653945 
L 247.545636 1092.835794 
L 247.791412 1093.013765 
L 248.03998 1093.187815 
L 248.291279 1093.357898 
L 248.545244 1093.523974 
L 248.801813 1093.685999 
L 249.06092 1093.843933 
L 249.3225 1093.997736 
L 249.586487 1094.147369 
L 249.852816 1094.292796 
L 250.121418 1094.433978 
L 250.392226 1094.570881 
L 250.665172 1094.70347 
L 250.940188 1094.831712 
L 251.217204 1094.955574 
L 251.496149 1095.075026 
L 251.776956 1095.190037 
L 252.059551 1095.300578 
L 252.343865 1095.406621 
L 252.629825 1095.508141 
L 252.91736 1095.60511 
L 253.206398 1095.697505 
L 253.496865 1095.785303 
L 253.788688 1095.868481 
L 254.081795 1095.947019 
L 254.37611 1096.020896 
L 254.671561 1096.090095 
L 254.968072 1096.154597 
L 255.26557 1096.214386 
L 255.563979 1096.269448 
L 255.863223 1096.319769 
L 256.163229 1096.365335 
L 256.463919 1096.406136 
L 256.765219 1096.442161 
L 257.067053 1096.473401 
L 257.369345 1096.499848 
L 257.672018 1096.521495 
L 257.974996 1096.538338 
L 258.278203 1096.550371 
L 258.581563 1096.557593 
L 258.885 1096.56 
L 373.635 1096.56 
z
" clip-path="url(#pc78173f237)" style="fill: none; stroke: #000000; stroke-width: 2; stroke-linecap: round"/>
   </g>
   <g id="line2d_1">
    <path d="M 316.26 48.51 
L 316.26 94.41 
L 316.26 132.66 
" clip-path="url(#pc78173f237)" style="fill: none; stroke: #000000; stroke-width: 2; stroke-linecap: round"/>
   </g>
   <g id="patch_4">
    <path d="M 318.555 132.66 
L 316.26 140.31 
L 313.965 132.66 
z
" clip-path="url(#pc78173f237)"/>
   </g>
   <g id="line2d_2">
    <path d="M 10.26 170.91 
L 10.26 140.31 
L 622.26 140.31 
L 622.26 201.51 
L 10.26 201.51 
L 10.26 170.91 
" clip-path="url(#pc78173f237)" style="fill: none; stroke: #000000; stroke-width: 2; stroke-linecap: round"/>
   </g>
   <g id="line2d_3">
    <path d="M 316.26 201.51 
L 316.26 247.41 
L 316.26 285.66 
" clip-path="url(#pc78173f237)" style="fill: none; stroke: #000000; stroke-width: 2; stroke-linecap: round"/>
   </g>
   <g id="patch_5">
    <path d="M 318.555 285.66 
L 316.26 293.31 
L 313.965 285.66 
z
" clip-path="url(#pc78173f237)"/>
   </g>
   <g id="line2d_4">
    <path d="M 10.26 323.91 
L 10.26 293.31 
L 622.26 293.31 
L 622.26 354.51 
L 10.26 354.51 
L 10.26 323.91 
" clip-path="url(#pc78173f237)" style="fill: none; stroke: #000000; stroke-width: 2; stroke-linecap: round"/>
   </g>
   <g id="line2d_5">
    <path d="M 316.26 354.51 
L 316.26 400.41 
L 316.26 438.66 
" clip-path="url(#pc78173f237)" style="fill: none; stroke: #000000; stroke-width: 2; stroke-linecap: round"/>
   </g>
   <g id="patch_6">
    <path d="M 318.555 438.66 
L 316.26 446.31 
L 313.965 438.66 
z
" clip-path="url(#pc78173f237)"/>
   </g>
   <g id="line2d_6">
    <path d="M 10.26 476.91 
L 10.26 446.31 
L 622.26 446.31 
L 622.26 507.51 
L 10.26 507.51 
L 10.26 476.91 
" clip-path="url(#pc78173f237)" style="fill: none; stroke: #000000; stroke-width: 2; stroke-linecap: round"/>
   </g>
   <g id="line2d_7">
    <path d="M 316.26 507.51 
L 316.26 553.41 
L 316.26 591.66 
" clip-path="url(#pc78173f237)" style="fill: none; stroke: #000000; stroke-width: 2; stroke-linecap: round"/>
   </g>
   <g id="patch_7">
    <path d="M 318.555 591.66 
L 316.26 599.31 
L 313.965 591.66 
z
" clip-path="url(#pc78173f237)"/>
   </g>
   <g id="line2d_8">
    <path d="M 10.26 629.91 
L 10.26 599.31 
L 622.26 599.31 
L 622.26 660.51 
L 10.26 660.51 
L 10.26 629.91 
" clip-path="url(#pc78173f237)" style="fill: none; stroke: #000000; stroke-width: 2; stroke-linecap: round"/>
   </g>
   <g id="line2d_9">
    <path d="M 316.26 660.51 
L 316.26 706.41 
L 316.26 744.66 
" clip-path="url(#pc78173f237)" style="fill: none; stroke: #000000; stroke-width: 2; stroke-linecap: round"/>
   </g>
   <g id="patch_8">
    <path d="M 318.555 744.66 
L 316.26 752.31 
L 313.965 744.66 
z
" clip-path="url(#pc78173f237)"/>
   </g>
   <g id="line2d_10">
    <path d="M 10.26 782.91 
L 10.26 752.31 
L 622.26 752.31 
L 622.26 813.51 
L 10.26 813.51 
L 10.26 782.91 
" clip-path="url(#pc78173f237)" style="fill: none; stroke: #000000; stroke-width: 2; stroke-linecap: round"/>
   </g>
   <g id="line2d_11">
    <path d="M 316.26 813.51 
L 316.26 859.41 
L 316.26 897.66 
" clip-path="url(#pc78173f237)" style="fill: none; stroke: #000000; stroke-width: 2; stroke-linecap: round"/>
   </g>
   <g id="patch_9">
    <path d="M 318.555 897.66 
L 316.26 905.31 
L 313.965 897.66 
z
" clip-path="url(#pc78173f237)"/>
   </g>
   <g id="line2d_12">
    <path d="M 10.26 935.91 
L 10.26 905.31 
L 622.26 905.31 
L 622.26 966.51 
L 10.26 966.51 
L 10.26 935.91 
" clip-path="url(#pc78173f237)" style="fill: none; stroke: #000000; stroke-width: 2; stroke-linecap: round"/>
   </g>
   <g id="line2d_13">
    <path d="M 316.26 966.51 
L 316.26 1012.41 
L 316.26 1050.66 
" clip-path="url(#pc78173f237)" style="fill: none; stroke: #000000; stroke-width: 2; stroke-linecap: round"/>
   </g>
   <g id="patch_10">
    <path d="M 318.555 1050.66 
L 316.26 1058.31 
L 313.965 1050.66 
z
" clip-path="url(#pc78173f237)"/>
   </g>
   <g id="text_1">
    <g clip-path="url(#pc78173f237)">
     <!-- input -->
     <g transform="translate(300.183828 32.834219)scale(0.125 -0.125)">
      <defs>
       <path id="DejaVuSans-69" d="M 603 3500 
L 1178 3500 
L 1178 0 
L 603 0 
L 603 3500 
z
M 603 4863 
L 1178 4863 
L 1178 4134 
L 603 4134 
L 603 4863 
z
" transform="scale(0.015625)"/>
       <path id="DejaVuSans-6e" d="M 3513 2113 
L 3513 0 
L 2938 0 
L 2938 2094 
Q 2938 2591 2744 2837 
Q 2550 3084 2163 3084 
Q 1697 3084 1428 2787 
Q 1159 2491 1159 1978 
L 1159 0 
L 581 0 
L 581 3500 
L 1159 3500 
L 1159 2956 
Q 1366 3272 1645 3428 
Q 1925 3584 2291 3584 
Q 2894 3584 3203 3211 
Q 3513 2838 3513 2113 
z
" transform="scale(0.015625)"/>
       <path id="DejaVuSans-70" d="M 1159 525 
L 1159 -1331 
L 581 -1331 
L 581 3500 
L 1159 3500 
L 1159 2969 
Q 1341 3281 1617 3432 
Q 1894 3584 2278 3584 
Q 2916 3584 3314 3078 
Q 3713 2572 3713 1747 
Q 3713 922 3314 415 
Q 2916 -91 2278 -91 
Q 1894 -91 1617 61 
Q 1341 213 1159 525 
z
M 3116 1747 
Q 3116 2381 2855 2742 
Q 2594 3103 2138 3103 
Q 1681 3103 1420 2742 
Q 1159 2381 1159 1747 
Q 1159 1113 1420 752 
Q 1681 391 2138 391 
Q 2594 391 2855 752 
Q 3116 1113 3116 1747 
z
" transform="scale(0.015625)"/>
       <path id="DejaVuSans-75" d="M 544 1381 
L 544 3500 
L 1119 3500 
L 1119 1403 
Q 1119 906 1312 657 
Q 1506 409 1894 409 
Q 2359 409 2629 706 
Q 2900 1003 2900 1516 
L 2900 3500 
L 3475 3500 
L 3475 0 
L 2900 0 
L 2900 538 
Q 2691 219 2414 64 
Q 2138 -91 1772 -91 
Q 1169 -91 856 284 
Q 544 659 544 1381 
z
M 1991 3584 
L 1991 3584 
z
" transform="scale(0.015625)"/>
       <path id="DejaVuSans-74" d="M 1172 4494 
L 1172 3500 
L 2356 3500 
L 2356 3053 
L 1172 3053 
L 1172 1153 
Q 1172 725 1289 603 
Q 1406 481 1766 481 
L 2356 481 
L 2356 0 
L 1766 0 
Q 1100 0 847 248 
Q 594 497 594 1153 
L 594 3053 
L 172 3053 
L 172 3500 
L 594 3500 
L 594 4494 
L 1172 4494 
z
" transform="scale(0.015625)"/>
      </defs>
      <use xlink:href="#DejaVuSans-69"/>
      <use xlink:href="#DejaVuSans-6e" x="27.783203"/>
      <use xlink:href="#DejaVuSans-70" x="91.162109"/>
      <use xlink:href="#DejaVuSans-75" x="154.638672"/>
      <use xlink:href="#DejaVuSans-74" x="218.017578"/>
     </g>
    </g>
   </g>
   <g id="text_2">
    <g clip-path="url(#pc78173f237)">
     <!-- 784*1 -->
     <g transform="translate(275.1375 97.859219)scale(0.125 -0.125)">
      <defs>
       <path id="DejaVuSans-37" d="M 525 4666 
L 3525 4666 
L 3525 4397 
L 1831 0 
L 1172 0 
L 2766 4134 
L 525 4134 
L 525 4666 
z
" transform="scale(0.015625)"/>
       <path id="DejaVuSans-38" d="M 2034 2216 
Q 1584 2216 1326 1975 
Q 1069 1734 1069 1313 
Q 1069 891 1326 650 
Q 1584 409 2034 409 
Q 2484 409 2743 651 
Q 3003 894 3003 1313 
Q 3003 1734 2745 1975 
Q 2488 2216 2034 2216 
z
M 1403 2484 
Q 997 2584 770 2862 
Q 544 3141 544 3541 
Q 544 4100 942 4425 
Q 1341 4750 2034 4750 
Q 2731 4750 3128 4425 
Q 3525 4100 3525 3541 
Q 3525 3141 3298 2862 
Q 3072 2584 2669 2484 
Q 3125 2378 3379 2068 
Q 3634 1759 3634 1313 
Q 3634 634 3220 271 
Q 2806 -91 2034 -91 
Q 1263 -91 848 271 
Q 434 634 434 1313 
Q 434 1759 690 2068 
Q 947 2378 1403 2484 
z
M 1172 3481 
Q 1172 3119 1398 2916 
Q 1625 2713 2034 2713 
Q 2441 2713 2670 2916 
Q 2900 3119 2900 3481 
Q 2900 3844 2670 4047 
Q 2441 4250 2034 4250 
Q 1625 4250 1398 4047 
Q 1172 3844 1172 3481 
z
" transform="scale(0.015625)"/>
       <path id="DejaVuSans-34" d="M 2419 4116 
L 825 1625 
L 2419 1625 
L 2419 4116 
z
M 2253 4666 
L 3047 4666 
L 3047 1625 
L 3713 1625 
L 3713 1100 
L 3047 1100 
L 3047 0 
L 2419 0 
L 2419 1100 
L 313 1100 
L 313 1709 
L 2253 4666 
z
" transform="scale(0.015625)"/>
       <path id="DejaVuSans-2a" d="M 3009 3897 
L 1888 3291 
L 3009 2681 
L 2828 2375 
L 1778 3009 
L 1778 1831 
L 1422 1831 
L 1422 3009 
L 372 2375 
L 191 2681 
L 1313 3291 
L 191 3897 
L 372 4206 
L 1422 3572 
L 1422 4750 
L 1778 4750 
L 1778 3572 
L 2828 4206 
L 3009 3897 
z
" transform="scale(0.015625)"/>
       <path id="DejaVuSans-31" d="M 794 531 
L 1825 531 
L 1825 4091 
L 703 3866 
L 703 4441 
L 1819 4666 
L 2450 4666 
L 2450 531 
L 3481 531 
L 3481 0 
L 794 0 
L 794 531 
z
" transform="scale(0.015625)"/>
      </defs>
      <use xlink:href="#DejaVuSans-37"/>
      <use xlink:href="#DejaVuSans-38" x="63.623047"/>
      <use xlink:href="#DejaVuSans-34" x="127.246094"/>
      <use xlink:href="#DejaVuSans-2a" x="190.869141"/>
      <use xlink:href="#DejaVuSans-31" x="240.869141"/>
     </g>
    </g>
   </g>
   <g id="text_3">
    <g clip-path="url(#pc78173f237)">
     <!-- linear1 (Linear)  -->
     <g transform="translate(266.330313 174.359219)scale(0.125 -0.125)">
      <defs>
       <path id="DejaVuSans-6c" d="M 603 4863 
L 1178 4863 
L 1178 0 
L 603 0 
L 603 4863 
z
" transform="scale(0.015625)"/>
       <path id="DejaVuSans-65" d="M 3597 1894 
L 3597 1613 
L 953 1613 
Q 991 1019 1311 708 
Q 1631 397 2203 397 
Q 2534 397 2845 478 
Q 3156 559 3463 722 
L 3463 178 
Q 3153 47 2828 -22 
Q 2503 -91 2169 -91 
Q 1331 -91 842 396 
Q 353 884 353 1716 
Q 353 2575 817 3079 
Q 1281 3584 2069 3584 
Q 2775 3584 3186 3129 
Q 3597 2675 3597 1894 
z
M 3022 2063 
Q 3016 2534 2758 2815 
Q 2500 3097 2075 3097 
Q 1594 3097 1305 2825 
Q 1016 2553 972 2059 
L 3022 2063 
z
" transform="scale(0.015625)"/>
       <path id="DejaVuSans-61" d="M 2194 1759 
Q 1497 1759 1228 1600 
Q 959 1441 959 1056 
Q 959 750 1161 570 
Q 1363 391 1709 391 
Q 2188 391 2477 730 
Q 2766 1069 2766 1631 
L 2766 1759 
L 2194 1759 
z
M 3341 1997 
L 3341 0 
L 2766 0 
L 2766 531 
Q 2569 213 2275 61 
Q 1981 -91 1556 -91 
Q 1019 -91 701 211 
Q 384 513 384 1019 
Q 384 1609 779 1909 
Q 1175 2209 1959 2209 
L 2766 2209 
L 2766 2266 
Q 2766 2663 2505 2880 
Q 2244 3097 1772 3097 
Q 1472 3097 1187 3025 
Q 903 2953 641 2809 
L 641 3341 
Q 956 3463 1253 3523 
Q 1550 3584 1831 3584 
Q 2591 3584 2966 3190 
Q 3341 2797 3341 1997 
z
" transform="scale(0.015625)"/>
       <path id="DejaVuSans-72" d="M 2631 2963 
Q 2534 3019 2420 3045 
Q 2306 3072 2169 3072 
Q 1681 3072 1420 2755 
Q 1159 2438 1159 1844 
L 1159 0 
L 581 0 
L 581 3500 
L 1159 3500 
L 1159 2956 
Q 1341 3275 1631 3429 
Q 1922 3584 2338 3584 
Q 2397 3584 2469 3576 
Q 2541 3569 2628 3553 
L 2631 2963 
z
" transform="scale(0.015625)"/>
       <path id="DejaVuSans-20" transform="scale(0.015625)"/>
       <path id="DejaVuSans-28" d="M 1984 4856 
Q 1566 4138 1362 3434 
Q 1159 2731 1159 2009 
Q 1159 1288 1364 580 
Q 1569 -128 1984 -844 
L 1484 -844 
Q 1016 -109 783 600 
Q 550 1309 550 2009 
Q 550 2706 781 3412 
Q 1013 4119 1484 4856 
L 1984 4856 
z
" transform="scale(0.015625)"/>
       <path id="DejaVuSans-4c" d="M 628 4666 
L 1259 4666 
L 1259 531 
L 3531 531 
L 3531 0 
L 628 0 
L 628 4666 
z
" transform="scale(0.015625)"/>
       <path id="DejaVuSans-29" d="M 513 4856 
L 1013 4856 
Q 1481 4119 1714 3412 
Q 1947 2706 1947 2009 
Q 1947 1309 1714 600 
Q 1481 -109 1013 -844 
L 513 -844 
Q 928 -128 1133 580 
Q 1338 1288 1338 2009 
Q 1338 2731 1133 3434 
Q 928 4138 513 4856 
z
" transform="scale(0.015625)"/>
      </defs>
      <use xlink:href="#DejaVuSans-6c"/>
      <use xlink:href="#DejaVuSans-69" x="27.783203"/>
      <use xlink:href="#DejaVuSans-6e" x="55.566406"/>
      <use xlink:href="#DejaVuSans-65" x="118.945312"/>
      <use xlink:href="#DejaVuSans-61" x="180.46875"/>
      <use xlink:href="#DejaVuSans-72" x="241.748047"/>
      <use xlink:href="#DejaVuSans-31" x="282.861328"/>
      <use xlink:href="#DejaVuSans-20" x="346.484375"/>
      <use xlink:href="#DejaVuSans-28" x="378.271484"/>
      <use xlink:href="#DejaVuSans-4c" x="417.285156"/>
      <use xlink:href="#DejaVuSans-69" x="472.998047"/>
      <use xlink:href="#DejaVuSans-6e" x="500.78125"/>
      <use xlink:href="#DejaVuSans-65" x="564.160156"/>
      <use xlink:href="#DejaVuSans-61" x="625.683594"/>
      <use xlink:href="#DejaVuSans-72" x="686.962891"/>
      <use xlink:href="#DejaVuSans-29" x="728.076172"/>
      <use xlink:href="#DejaVuSans-20" x="767.089844"/>
     </g>
    </g>
   </g>
   <g id="text_4">
    <g clip-path="url(#pc78173f237)">
     <!-- 256*1 -->
     <g transform="translate(275.1375 250.859219)scale(0.125 -0.125)">
      <defs>
       <path id="DejaVuSans-32" d="M 1228 531 
L 3431 531 
L 3431 0 
L 469 0 
L 469 531 
Q 828 903 1448 1529 
Q 2069 2156 2228 2338 
Q 2531 2678 2651 2914 
Q 2772 3150 2772 3378 
Q 2772 3750 2511 3984 
Q 2250 4219 1831 4219 
Q 1534 4219 1204 4116 
Q 875 4013 500 3803 
L 500 4441 
Q 881 4594 1212 4672 
Q 1544 4750 1819 4750 
Q 2544 4750 2975 4387 
Q 3406 4025 3406 3419 
Q 3406 3131 3298 2873 
Q 3191 2616 2906 2266 
Q 2828 2175 2409 1742 
Q 1991 1309 1228 531 
z
" transform="scale(0.015625)"/>
       <path id="DejaVuSans-35" d="M 691 4666 
L 3169 4666 
L 3169 4134 
L 1269 4134 
L 1269 2991 
Q 1406 3038 1543 3061 
Q 1681 3084 1819 3084 
Q 2600 3084 3056 2656 
Q 3513 2228 3513 1497 
Q 3513 744 3044 326 
Q 2575 -91 1722 -91 
Q 1428 -91 1123 -41 
Q 819 9 494 109 
L 494 744 
Q 775 591 1075 516 
Q 1375 441 1709 441 
Q 2250 441 2565 725 
Q 2881 1009 2881 1497 
Q 2881 1984 2565 2268 
Q 2250 2553 1709 2553 
Q 1456 2553 1204 2497 
Q 953 2441 691 2322 
L 691 4666 
z
" transform="scale(0.015625)"/>
       <path id="DejaVuSans-36" d="M 2113 2584 
Q 1688 2584 1439 2293 
Q 1191 2003 1191 1497 
Q 1191 994 1439 701 
Q 1688 409 2113 409 
Q 2538 409 2786 701 
Q 3034 994 3034 1497 
Q 3034 2003 2786 2293 
Q 2538 2584 2113 2584 
z
M 3366 4563 
L 3366 3988 
Q 3128 4100 2886 4159 
Q 2644 4219 2406 4219 
Q 1781 4219 1451 3797 
Q 1122 3375 1075 2522 
Q 1259 2794 1537 2939 
Q 1816 3084 2150 3084 
Q 2853 3084 3261 2657 
Q 3669 2231 3669 1497 
Q 3669 778 3244 343 
Q 2819 -91 2113 -91 
Q 1303 -91 875 529 
Q 447 1150 447 2328 
Q 447 3434 972 4092 
Q 1497 4750 2381 4750 
Q 2619 4750 2861 4703 
Q 3103 4656 3366 4563 
z
" transform="scale(0.015625)"/>
      </defs>
      <use xlink:href="#DejaVuSans-32"/>
      <use xlink:href="#DejaVuSans-35" x="63.623047"/>
      <use xlink:href="#DejaVuSans-36" x="127.246094"/>
      <use xlink:href="#DejaVuSans-2a" x="190.869141"/>
      <use xlink:href="#DejaVuSans-31" x="240.869141"/>
     </g>
    </g>
   </g>
   <g id="text_5">
    <g clip-path="url(#pc78173f237)">
     <!-- f1 (Relu)  -->
     <g transform="translate(287.629141 327.359219)scale(0.125 -0.125)">
      <defs>
       <path id="DejaVuSans-66" d="M 2375 4863 
L 2375 4384 
L 1825 4384 
Q 1516 4384 1395 4259 
Q 1275 4134 1275 3809 
L 1275 3500 
L 2222 3500 
L 2222 3053 
L 1275 3053 
L 1275 0 
L 697 0 
L 697 3053 
L 147 3053 
L 147 3500 
L 697 3500 
L 697 3744 
Q 697 4328 969 4595 
Q 1241 4863 1831 4863 
L 2375 4863 
z
" transform="scale(0.015625)"/>
       <path id="DejaVuSans-52" d="M 2841 2188 
Q 3044 2119 3236 1894 
Q 3428 1669 3622 1275 
L 4263 0 
L 3584 0 
L 2988 1197 
Q 2756 1666 2539 1819 
Q 2322 1972 1947 1972 
L 1259 1972 
L 1259 0 
L 628 0 
L 628 4666 
L 2053 4666 
Q 2853 4666 3247 4331 
Q 3641 3997 3641 3322 
Q 3641 2881 3436 2590 
Q 3231 2300 2841 2188 
z
M 1259 4147 
L 1259 2491 
L 2053 2491 
Q 2509 2491 2742 2702 
Q 2975 2913 2975 3322 
Q 2975 3731 2742 3939 
Q 2509 4147 2053 4147 
L 1259 4147 
z
" transform="scale(0.015625)"/>
      </defs>
      <use xlink:href="#DejaVuSans-66"/>
      <use xlink:href="#DejaVuSans-31" x="35.205078"/>
      <use xlink:href="#DejaVuSans-20" x="98.828125"/>
      <use xlink:href="#DejaVuSans-28" x="130.615234"/>
      <use xlink:href="#DejaVuSans-52" x="169.628906"/>
      <use xlink:href="#DejaVuSans-65" x="234.611328"/>
      <use xlink:href="#DejaVuSans-6c" x="296.134766"/>
      <use xlink:href="#DejaVuSans-75" x="323.917969"/>
      <use xlink:href="#DejaVuSans-29" x="387.296875"/>
      <use xlink:href="#DejaVuSans-20" x="426.310547"/>
     </g>
    </g>
   </g>
   <g id="text_6">
    <g clip-path="url(#pc78173f237)">
     <!-- 256*1 -->
     <g transform="translate(275.1375 403.859219)scale(0.125 -0.125)">
      <use xlink:href="#DejaVuSans-32"/>
      <use xlink:href="#DejaVuSans-35" x="63.623047"/>
      <use xlink:href="#DejaVuSans-36" x="127.246094"/>
      <use xlink:href="#DejaVuSans-2a" x="190.869141"/>
      <use xlink:href="#DejaVuSans-31" x="240.869141"/>
     </g>
    </g>
   </g>
   <g id="text_7">
    <g clip-path="url(#pc78173f237)">
     <!-- linear2 (Linear)  -->
     <g transform="translate(266.330313 480.359219)scale(0.125 -0.125)">
      <use xlink:href="#DejaVuSans-6c"/>
      <use xlink:href="#DejaVuSans-69" x="27.783203"/>
      <use xlink:href="#DejaVuSans-6e" x="55.566406"/>
      <use xlink:href="#DejaVuSans-65" x="118.945312"/>
      <use xlink:href="#DejaVuSans-61" x="180.46875"/>
      <use xlink:href="#DejaVuSans-72" x="241.748047"/>
      <use xlink:href="#DejaVuSans-32" x="282.861328"/>
      <use xlink:href="#DejaVuSans-20" x="346.484375"/>
      <use xlink:href="#DejaVuSans-28" x="378.271484"/>
      <use xlink:href="#DejaVuSans-4c" x="417.285156"/>
      <use xlink:href="#DejaVuSans-69" x="472.998047"/>
      <use xlink:href="#DejaVuSans-6e" x="500.78125"/>
      <use xlink:href="#DejaVuSans-65" x="564.160156"/>
      <use xlink:href="#DejaVuSans-61" x="625.683594"/>
      <use xlink:href="#DejaVuSans-72" x="686.962891"/>
      <use xlink:href="#DejaVuSans-29" x="728.076172"/>
      <use xlink:href="#DejaVuSans-20" x="767.089844"/>
     </g>
    </g>
   </g>
   <g id="text_8">
    <g clip-path="url(#pc78173f237)">
     <!-- 100*1 -->
     <g transform="translate(275.1375 556.859219)scale(0.125 -0.125)">
      <defs>
       <path id="DejaVuSans-30" d="M 2034 4250 
Q 1547 4250 1301 3770 
Q 1056 3291 1056 2328 
Q 1056 1369 1301 889 
Q 1547 409 2034 409 
Q 2525 409 2770 889 
Q 3016 1369 3016 2328 
Q 3016 3291 2770 3770 
Q 2525 4250 2034 4250 
z
M 2034 4750 
Q 2819 4750 3233 4129 
Q 3647 3509 3647 2328 
Q 3647 1150 3233 529 
Q 2819 -91 2034 -91 
Q 1250 -91 836 529 
Q 422 1150 422 2328 
Q 422 3509 836 4129 
Q 1250 4750 2034 4750 
z
" transform="scale(0.015625)"/>
      </defs>
      <use xlink:href="#DejaVuSans-31"/>
      <use xlink:href="#DejaVuSans-30" x="63.623047"/>
      <use xlink:href="#DejaVuSans-30" x="127.246094"/>
      <use xlink:href="#DejaVuSans-2a" x="190.869141"/>
      <use xlink:href="#DejaVuSans-31" x="240.869141"/>
     </g>
    </g>
   </g>
   <g id="text_9">
    <g clip-path="url(#pc78173f237)">
     <!-- f2 (Relu)  -->
     <g transform="translate(287.629141 633.359219)scale(0.125 -0.125)">
      <use xlink:href="#DejaVuSans-66"/>
      <use xlink:href="#DejaVuSans-32" x="35.205078"/>
      <use xlink:href="#DejaVuSans-20" x="98.828125"/>
      <use xlink:href="#DejaVuSans-28" x="130.615234"/>
      <use xlink:href="#DejaVuSans-52" x="169.628906"/>
      <use xlink:href="#DejaVuSans-65" x="234.611328"/>
      <use xlink:href="#DejaVuSans-6c" x="296.134766"/>
      <use xlink:href="#DejaVuSans-75" x="323.917969"/>
      <use xlink:href="#DejaVuSans-29" x="387.296875"/>
      <use xlink:href="#DejaVuSans-20" x="426.310547"/>
     </g>
    </g>
   </g>
   <g id="text_10">
    <g clip-path="url(#pc78173f237)">
     <!-- 100*1 -->
     <g transform="translate(275.1375 709.859219)scale(0.125 -0.125)">
      <use xlink:href="#DejaVuSans-31"/>
      <use xlink:href="#DejaVuSans-30" x="63.623047"/>
      <use xlink:href="#DejaVuSans-30" x="127.246094"/>
      <use xlink:href="#DejaVuSans-2a" x="190.869141"/>
      <use xlink:href="#DejaVuSans-31" x="240.869141"/>
     </g>
    </g>
   </g>
   <g id="text_11">
    <g clip-path="url(#pc78173f237)">
     <!-- linear3 (Linear)  -->
     <g transform="translate(266.330313 786.359219)scale(0.125 -0.125)">
      <defs>
       <path id="DejaVuSans-33" d="M 2597 2516 
Q 3050 2419 3304 2112 
Q 3559 1806 3559 1356 
Q 3559 666 3084 287 
Q 2609 -91 1734 -91 
Q 1441 -91 1130 -33 
Q 819 25 488 141 
L 488 750 
Q 750 597 1062 519 
Q 1375 441 1716 441 
Q 2309 441 2620 675 
Q 2931 909 2931 1356 
Q 2931 1769 2642 2001 
Q 2353 2234 1838 2234 
L 1294 2234 
L 1294 2753 
L 1863 2753 
Q 2328 2753 2575 2939 
Q 2822 3125 2822 3475 
Q 2822 3834 2567 4026 
Q 2313 4219 1838 4219 
Q 1578 4219 1281 4162 
Q 984 4106 628 3988 
L 628 4550 
Q 988 4650 1302 4700 
Q 1616 4750 1894 4750 
Q 2613 4750 3031 4423 
Q 3450 4097 3450 3541 
Q 3450 3153 3228 2886 
Q 3006 2619 2597 2516 
z
" transform="scale(0.015625)"/>
      </defs>
      <use xlink:href="#DejaVuSans-6c"/>
      <use xlink:href="#DejaVuSans-69" x="27.783203"/>
      <use xlink:href="#DejaVuSans-6e" x="55.566406"/>
      <use xlink:href="#DejaVuSans-65" x="118.945312"/>
      <use xlink:href="#DejaVuSans-61" x="180.46875"/>
      <use xlink:href="#DejaVuSans-72" x="241.748047"/>
      <use xlink:href="#DejaVuSans-33" x="282.861328"/>
      <use xlink:href="#DejaVuSans-20" x="346.484375"/>
      <use xlink:href="#DejaVuSans-28" x="378.271484"/>
      <use xlink:href="#DejaVuSans-4c" x="417.285156"/>
      <use xlink:href="#DejaVuSans-69" x="472.998047"/>
      <use xlink:href="#DejaVuSans-6e" x="500.78125"/>
      <use xlink:href="#DejaVuSans-65" x="564.160156"/>
      <use xlink:href="#DejaVuSans-61" x="625.683594"/>
      <use xlink:href="#DejaVuSans-72" x="686.962891"/>
      <use xlink:href="#DejaVuSans-29" x="728.076172"/>
      <use xlink:href="#DejaVuSans-20" x="767.089844"/>
     </g>
    </g>
   </g>
   <g id="text_12">
    <g clip-path="url(#pc78173f237)">
     <!-- 10*1 -->
     <g transform="translate(283.090625 862.859219)scale(0.125 -0.125)">
      <use xlink:href="#DejaVuSans-31"/>
      <use xlink:href="#DejaVuSans-30" x="63.623047"/>
      <use xlink:href="#DejaVuSans-2a" x="127.246094"/>
      <use xlink:href="#DejaVuSans-31" x="177.246094"/>
     </g>
    </g>
   </g>
   <g id="text_13">
    <g clip-path="url(#pc78173f237)">
     <!-- f3 (SoftMax)  -->
     <g transform="translate(275.97875 939.359219)scale(0.125 -0.125)">
      <defs>
       <path id="DejaVuSans-53" d="M 3425 4513 
L 3425 3897 
Q 3066 4069 2747 4153 
Q 2428 4238 2131 4238 
Q 1616 4238 1336 4038 
Q 1056 3838 1056 3469 
Q 1056 3159 1242 3001 
Q 1428 2844 1947 2747 
L 2328 2669 
Q 3034 2534 3370 2195 
Q 3706 1856 3706 1288 
Q 3706 609 3251 259 
Q 2797 -91 1919 -91 
Q 1588 -91 1214 -16 
Q 841 59 441 206 
L 441 856 
Q 825 641 1194 531 
Q 1563 422 1919 422 
Q 2459 422 2753 634 
Q 3047 847 3047 1241 
Q 3047 1584 2836 1778 
Q 2625 1972 2144 2069 
L 1759 2144 
Q 1053 2284 737 2584 
Q 422 2884 422 3419 
Q 422 4038 858 4394 
Q 1294 4750 2059 4750 
Q 2388 4750 2728 4690 
Q 3069 4631 3425 4513 
z
" transform="scale(0.015625)"/>
       <path id="DejaVuSans-6f" d="M 1959 3097 
Q 1497 3097 1228 2736 
Q 959 2375 959 1747 
Q 959 1119 1226 758 
Q 1494 397 1959 397 
Q 2419 397 2687 759 
Q 2956 1122 2956 1747 
Q 2956 2369 2687 2733 
Q 2419 3097 1959 3097 
z
M 1959 3584 
Q 2709 3584 3137 3096 
Q 3566 2609 3566 1747 
Q 3566 888 3137 398 
Q 2709 -91 1959 -91 
Q 1206 -91 779 398 
Q 353 888 353 1747 
Q 353 2609 779 3096 
Q 1206 3584 1959 3584 
z
" transform="scale(0.015625)"/>
       <path id="DejaVuSans-4d" d="M 628 4666 
L 1569 4666 
L 2759 1491 
L 3956 4666 
L 4897 4666 
L 4897 0 
L 4281 0 
L 4281 4097 
L 3078 897 
L 2444 897 
L 1241 4097 
L 1241 0 
L 628 0 
L 628 4666 
z
" transform="scale(0.015625)"/>
       <path id="DejaVuSans-78" d="M 3513 3500 
L 2247 1797 
L 3578 0 
L 2900 0 
L 1881 1375 
L 863 0 
L 184 0 
L 1544 1831 
L 300 3500 
L 978 3500 
L 1906 2253 
L 2834 3500 
L 3513 3500 
z
" transform="scale(0.015625)"/>
      </defs>
      <use xlink:href="#DejaVuSans-66"/>
      <use xlink:href="#DejaVuSans-33" x="35.205078"/>
      <use xlink:href="#DejaVuSans-20" x="98.828125"/>
      <use xlink:href="#DejaVuSans-28" x="130.615234"/>
      <use xlink:href="#DejaVuSans-53" x="169.628906"/>
      <use xlink:href="#DejaVuSans-6f" x="233.105469"/>
      <use xlink:href="#DejaVuSans-66" x="294.287109"/>
      <use xlink:href="#DejaVuSans-74" x="327.742188"/>
      <use xlink:href="#DejaVuSans-4d" x="366.951172"/>
      <use xlink:href="#DejaVuSans-61" x="453.230469"/>
      <use xlink:href="#DejaVuSans-78" x="514.509766"/>
      <use xlink:href="#DejaVuSans-29" x="573.689453"/>
      <use xlink:href="#DejaVuSans-20" x="612.703125"/>
     </g>
    </g>
   </g>
   <g id="text_14">
    <g clip-path="url(#pc78173f237)">
     <!-- 10 * 1 -->
     <g transform="translate(275.145312 1015.859219)scale(0.125 -0.125)">
      <use xlink:href="#DejaVuSans-31"/>
      <use xlink:href="#DejaVuSans-30" x="63.623047"/>
      <use xlink:href="#DejaVuSans-20" x="127.246094"/>
      <use xlink:href="#DejaVuSans-2a" x="159.033203"/>
      <use xlink:href="#DejaVuSans-20" x="209.033203"/>
      <use xlink:href="#DejaVuSans-31" x="240.820312"/>
     </g>
    </g>
   </g>
   <g id="text_15">
    <g clip-path="url(#pc78173f237)">
     <!-- output -->
     <g transform="translate(295.645742 1080.884219)scale(0.125 -0.125)">
      <use xlink:href="#DejaVuSans-6f"/>
      <use xlink:href="#DejaVuSans-75" x="61.181641"/>
      <use xlink:href="#DejaVuSans-74" x="124.560547"/>
      <use xlink:href="#DejaVuSans-70" x="163.769531"/>
      <use xlink:href="#DejaVuSans-75" x="227.246094"/>
      <use xlink:href="#DejaVuSans-74" x="290.625"/>
     </g>
    </g>
   </g>
  </g>
 </g>
 <defs>
  <clipPath id="pc78173f237">
   <rect x="7.2" y="7.2" width="618.12" height="1092.42"/>
  </clipPath>
 </defs>
</svg>
